<svg width="17" height="8" viewBox="0 0 17 8" fill="none" xmlns="http://www.w3.org/2000/svg">
<line x1="4" y1="3" x2="4" y2="5" stroke="#E77B7B" stroke-linecap="round"/>
<path d="M7.00862 3.24974C6.59441 3.24974 6.25862 3.58553 6.25862 3.99974C6.25862 4.41396 6.59441 4.74974 7.00862 4.74974V3.24974ZM15.7849 4.74974C16.1991 4.74974 16.5349 4.41396 16.5349 3.99974C16.5349 3.58553 16.1991 3.24974 15.7849 3.24974V4.74974ZM12.9564 3.99969H13.7064C13.7064 3.58548 13.3706 3.24969 12.9564 3.24969V3.99969ZM12.9564 5.88531V6.63531C13.3706 6.63531 13.7064 6.29953 13.7064 5.88531H12.9564ZM10.128 5.88531H9.37795C9.37795 6.29953 9.71374 6.63531 10.128 6.63531V5.88531ZM10.128 3.99969V3.24969C9.71374 3.24969 9.37795 3.58548 9.37795 3.99969H10.128ZM5.59069 5.59069C4.7129 6.46848 3.28726 6.46924 2.40813 5.59011L1.34747 6.65077C2.81247 8.11577 5.18786 8.11484 6.65135 6.65135L5.59069 5.59069ZM2.40813 5.59011C1.53033 4.71231 1.53073 3.28669 2.40871 2.40871L1.34805 1.34805C-0.115249 2.81134 -0.116592 5.18671 1.34747 6.65077L2.40813 5.59011ZM2.40871 2.40871C3.28669 1.53073 4.71231 1.53033 5.59011 2.40813L6.65077 1.34747C5.18671 -0.116592 2.81134 -0.115249 1.34805 1.34805L2.40871 2.40871ZM5.59011 2.40813C6.46924 3.28726 6.46848 4.7129 5.59069 5.59069L6.65135 6.65135C8.11484 5.18786 8.11577 2.81247 6.65077 1.34747L5.59011 2.40813ZM7.00862 4.74974L15.7849 4.74974V3.24974L7.00862 3.24974V4.74974ZM12.2064 3.99969V5.88531H13.7064V3.99969H12.2064ZM12.9564 5.13531H10.128V6.63531H12.9564V5.13531ZM10.878 5.88531V3.99969H9.37795V5.88531H10.878ZM10.128 4.74969H12.9564V3.24969H10.128V4.74969Z" fill="#E77B7B"/>
</svg>
