<svg width="18" height="8" viewBox="0 0 18 8" fill="none" xmlns="http://www.w3.org/2000/svg">
<path d="M7.70909 3.25004C7.29488 3.25004 6.95909 3.58583 6.95909 4.00004C6.95909 4.41426 7.29488 4.75004 7.70909 4.75004V3.25004ZM16.4853 4.75004C16.8995 4.75004 17.2353 4.41426 17.2353 4.00004C17.2353 3.58583 16.8995 3.25004 16.4853 3.25004V4.75004ZM13.6569 4H14.4069C14.4069 3.58578 14.0711 3.25 13.6569 3.25V4ZM13.6569 5.88561V6.63561C14.0711 6.63561 14.4069 6.29983 14.4069 5.88561H13.6569ZM10.8284 5.88561H10.0784C10.0784 6.29983 10.4142 6.63561 10.8284 6.63561V5.88561ZM10.8284 4V3.25C10.4142 3.25 10.0784 3.58578 10.0784 4H10.8284ZM6.29116 5.59099C5.41337 6.46878 3.98773 6.46954 3.1086 5.59041L2.04794 6.65107C3.51294 8.11608 5.88833 8.11514 7.35182 6.65165L6.29116 5.59099ZM3.1086 5.59041C2.2308 4.71261 2.2312 3.28699 3.10918 2.40901L2.04852 1.34835C0.585221 2.81165 0.583878 5.18701 2.04794 6.65107L3.1086 5.59041ZM3.10918 2.40901C3.98716 1.53103 5.41278 1.53063 6.29058 2.40843L7.35124 1.34777C5.88718 -0.11629 3.51181 -0.114947 2.04852 1.34835L3.10918 2.40901ZM6.29058 2.40843C7.16971 3.28756 7.16895 4.7132 6.29116 5.59099L7.35182 6.65165C8.81531 5.18816 8.81624 2.81277 7.35124 1.34777L6.29058 2.40843ZM7.70909 4.75004L16.4853 4.75004V3.25004L7.70909 3.25004V4.75004ZM12.9069 4V5.88561H14.4069V4H12.9069ZM13.6569 5.13561H10.8284V6.63561H13.6569V5.13561ZM11.5784 5.88561V4H10.0784V5.88561H11.5784ZM10.8284 4.75H13.6569V3.25H10.8284V4.75Z" fill="#E77B7B"/>
</svg>
