<svg width="15" height="15" viewBox="0 0 15 15" fill="none" xmlns="http://www.w3.org/2000/svg">
<path opacity="0.15" d="M7.5 6.875C8.88069 6.875 10 5.75571 10 4.375C10 2.99429 8.88069 1.875 7.5 1.875C6.11929 1.875 5 2.99429 5 4.375C5 5.75571 6.11929 6.875 7.5 6.875Z" fill="#E77B7B"/>
<path d="M12.5 13.125V11.875C12.5 10.4943 11.3807 9.375 10 9.375H5C3.61929 9.375 2.5 10.4943 2.5 11.875V13.125H12.5ZM10 4.375C10 5.75571 8.88069 6.875 7.5 6.875C6.11929 6.875 5 5.75571 5 4.375C5 2.99429 6.11929 1.875 7.5 1.875C8.88069 1.875 10 2.99429 10 4.375Z" stroke="#E77B7B" stroke-width="1.5" stroke-linecap="round" stroke-linejoin="round"/>
</svg>
