<svg width="21" height="19" viewBox="0 0 21 19" fill="none" xmlns="http://www.w3.org/2000/svg">
<g opacity="0.15">
<path opacity="0.15" d="M4.375 7.91666H16.625V15.8333H4.375V7.91666Z" fill="#E77B7B"/>
<path opacity="0.15" d="M3.5 5.54166H17.5V7.91666H3.5V5.54166Z" fill="#E77B7B"/>
</g>
<path d="M4.375 7.91666V7.32291C4.01257 7.32291 3.71875 7.58874 3.71875 7.91666H4.375ZM16.625 7.91666H17.2812C17.2812 7.58874 16.9874 7.32291 16.625 7.32291V7.91666ZM16.625 15.8333V16.4271C16.9874 16.4271 17.2812 16.1612 17.2812 15.8333H16.625ZM4.375 15.8333H3.71875C3.71875 16.1612 4.01257 16.4271 4.375 16.4271V15.8333ZM12.25 15.8333V16.4271C12.6124 16.4271 12.9062 16.1612 12.9062 15.8333H12.25ZM8.75 15.8333H8.09375C8.09375 16.1612 8.38757 16.4271 8.75 16.4271V15.8333ZM3.5 5.54166V4.94791C3.13757 4.94791 2.84375 5.21374 2.84375 5.54166H3.5ZM17.5 5.54166H18.1562C18.1562 5.21374 17.8624 4.94791 17.5 4.94791V5.54166ZM17.5 7.91666V8.51041C17.8624 8.51041 18.1562 8.24457 18.1562 7.91666H17.5ZM3.5 7.91666H2.84375C2.84375 8.24457 3.13757 8.51041 3.5 8.51041V7.91666ZM8.75 5.54166V4.94791C8.38757 4.94791 8.09375 5.21374 8.09375 5.54166H8.75ZM12.25 5.54166H12.9062C12.9062 5.21374 12.6124 4.94791 12.25 4.94791V5.54166ZM10.3827 5.42289L9.74881 5.26919L9.57889 5.8427L10.2128 5.99641L10.3827 5.42289ZM14.9293 3.04789L15.4976 2.75102L14.9293 3.04789ZM10.5545 5.42289L10.7244 5.99641L11.3583 5.8427L11.1884 5.26919L10.5545 5.42289ZM6.0079 3.04789L5.43957 2.75102L6.0079 3.04789ZM4.375 8.51041H16.625V7.32291H4.375V8.51041ZM15.9687 7.91666V15.8333H17.2812V7.91666H15.9687ZM16.625 15.2396H4.375V16.4271H16.625V15.2396ZM5.03125 15.8333V7.91666H3.71875V15.8333H5.03125ZM8.75 8.51041H12.25V7.32291H8.75V8.51041ZM11.5937 7.91666V15.8333H12.9062V7.91666H11.5937ZM12.25 15.2396H8.75V16.4271H12.25V15.2396ZM9.40625 15.8333V7.91666H8.09375V15.8333H9.40625ZM3.5 6.13541H17.5V4.94791H3.5V6.13541ZM16.8437 5.54166V7.91666H18.1562V5.54166H16.8437ZM17.5 7.32291H3.5V8.51041H17.5V7.32291ZM4.15625 7.91666V5.54166H2.84375V7.91666H4.15625ZM8.75 6.13541H12.25V4.94791H8.75V6.13541ZM11.5937 5.54166V7.91666H12.9062V5.54166H11.5937ZM9.40625 7.91666V5.54166H8.09375V7.91666H9.40625ZM11.0165 5.57659C11.2165 4.9014 11.9373 3.89949 12.7492 3.32285C13.1553 3.03441 13.4949 2.91665 13.732 2.9169C13.9044 2.91708 14.1263 2.97704 14.3609 3.34477L15.4976 2.75102C15.076 2.09031 14.4616 1.73018 13.7335 1.7294C13.07 1.7287 12.4451 2.0291 11.9388 2.38877C10.9256 3.10833 10.0292 4.32233 9.74881 5.26919L11.0165 5.57659ZM14.3609 3.34477C14.5956 3.71252 14.5421 3.91647 14.456 4.05165C14.3377 4.2375 14.0552 4.44475 13.5761 4.61875C12.6182 4.96662 11.2989 5.03035 10.5526 4.84938L10.2128 5.99641C11.2594 6.25019 12.8697 6.15489 14.065 5.72079C14.6625 5.50382 15.2624 5.16436 15.5935 4.64414C15.9568 4.07324 15.9192 3.41173 15.4976 2.75102L14.3609 3.34477ZM11.1884 5.26919C10.9079 4.32233 10.0116 3.10833 8.99841 2.38877C8.49203 2.0291 7.86713 1.7287 7.20368 1.7294C6.4756 1.73018 5.86118 2.09031 5.43957 2.75102L6.57623 3.34477C6.81088 2.97704 7.03285 2.91708 7.20523 2.9169C7.44225 2.91665 7.78189 3.03441 8.18801 3.32285C8.9999 3.89949 9.72064 4.9014 9.92066 5.57659L11.1884 5.26919ZM5.43957 2.75102C5.01795 3.41173 4.98042 4.07324 5.34369 4.64414C5.67472 5.16436 6.2747 5.50382 6.87218 5.72079C8.06751 6.15489 9.67776 6.25019 10.7244 5.99641L10.3847 4.84938C9.6383 5.03035 8.31897 4.96662 7.36108 4.61875C6.88194 4.44475 6.59942 4.2375 6.48116 4.05165C6.39514 3.91647 6.34155 3.71252 6.57623 3.34477L5.43957 2.75102Z" fill="#E77B7B"/>
</svg>
