<svg width="19" height="19" viewBox="0 0 19 19" fill="none" xmlns="http://www.w3.org/2000/svg">
<path opacity="0.15" d="M16.625 14.25V4.75001C16.625 4.5314 16.5364 4.33348 16.3931 4.19022L16.2292 4.35418L10.6196 9.96376C10.0013 10.5821 8.99872 10.5821 8.38043 9.96376L2.77083 4.35418L2.60687 4.19022C2.46361 4.33348 2.375 4.5314 2.375 4.75001V14.25C2.375 14.6872 2.72945 15.0417 3.16667 15.0417H15.8333C16.2706 15.0417 16.625 14.6872 16.625 14.25Z" fill="#E77B7B"/>
<path d="M2.77083 4.35417L8.38043 9.96376C8.99872 10.5821 10.0013 10.5821 10.6196 9.96376L16.2292 4.35417H2.77083ZM3.16667 15.0417H15.8333C16.2706 15.0417 16.625 14.6872 16.625 14.25V4.75C16.625 4.31278 16.2706 3.95834 15.8333 3.95834H3.16667C2.72945 3.95834 2.375 4.31278 2.375 4.75V14.25C2.375 14.6872 2.72945 15.0417 3.16667 15.0417Z" stroke="#E77B7B" stroke-width="1.5" stroke-linecap="round" stroke-linejoin="round"/>
</svg>
