<svg width="140" height="42" viewBox="0 0 140 42" fill="none" xmlns="http://www.w3.org/2000/svg">
<path d="M0.882353 0C0.395043 0 0 0.387713 0 0.86598V26.6289C0 29.8607 2.1222 32.6061 5.07353 33.5959V39.5103C5.07353 40.8853 6.20928 42 7.61029 42C9.01131 42 10.1471 40.8853 10.1471 39.5103V33.5181C12.983 32.468 15 29.7796 15 26.6289L15 0.865979C15 0.387712 14.605 0 14.1176 0C13.6303 0 13.2353 0.387712 13.2353 0.865979V16.0206C13.2353 16.738 12.6427 17.3196 11.9118 17.3196C11.1808 17.3196 10.5882 16.738 10.5882 16.0206V0.865979C10.5882 0.387712 10.1932 0 9.70588 0C9.21857 0 8.82353 0.387712 8.82353 0.865979V16.0206C8.82353 16.738 8.23096 17.3196 7.5 17.3196C6.76903 17.3196 6.17647 16.738 6.17647 16.0206V0.865979C6.17647 0.387712 5.78143 0 5.29412 0C4.80681 0 4.41176 0.387712 4.41176 0.865979V16.0206C4.41176 16.738 3.8192 17.3196 3.08823 17.3196C2.35727 17.3196 1.76471 16.738 1.76471 16.0206V0.865979C1.76471 0.387712 1.36966 0 0.882353 0Z" fill="#E77B7B"/>
<path d="M39.08 31.36C37.8 31.36 36.75 31.16 35.93 30.76C35.11 30.34 34.5 29.79 34.1 29.11C33.7 28.43 33.5 27.68 33.5 26.86C33.5 25.48 34.04 24.36 35.12 23.5C36.2 22.64 37.82 22.21 39.98 22.21H43.76V21.85C43.76 20.83 43.47 20.08 42.89 19.6C42.31 19.12 41.59 18.88 40.73 18.88C39.95 18.88 39.27 19.07 38.69 19.45C38.11 19.81 37.75 20.35 37.61 21.07H33.86C33.96 19.99 34.32 19.05 34.94 18.25C35.58 17.45 36.4 16.84 37.4 16.42C38.4 15.98 39.52 15.76 40.76 15.76C42.88 15.76 44.55 16.29 45.77 17.35C46.99 18.41 47.6 19.91 47.6 21.85V31H44.33L43.97 28.6C43.53 29.4 42.91 30.06 42.11 30.58C41.33 31.1 40.32 31.36 39.08 31.36ZM39.95 28.36C41.05 28.36 41.9 28 42.5 27.28C43.12 26.56 43.51 25.67 43.67 24.61H40.4C39.38 24.61 38.65 24.8 38.21 25.18C37.77 25.54 37.55 25.99 37.55 26.53C37.55 27.11 37.77 27.56 38.21 27.88C38.65 28.2 39.23 28.36 39.95 28.36ZM51.2645 37.6V16.12H54.6845L55.1045 18.25C55.5845 17.59 56.2145 17.01 56.9945 16.51C57.7945 16.01 58.8245 15.76 60.0845 15.76C61.4845 15.76 62.7345 16.1 63.8345 16.78C64.9345 17.46 65.8045 18.39 66.4445 19.57C67.0845 20.75 67.4045 22.09 67.4045 23.59C67.4045 25.09 67.0845 26.43 66.4445 27.61C65.8045 28.77 64.9345 29.69 63.8345 30.37C62.7345 31.03 61.4845 31.36 60.0845 31.36C58.9645 31.36 57.9845 31.15 57.1445 30.73C56.3045 30.31 55.6245 29.72 55.1045 28.96V37.6H51.2645ZM59.2745 28C60.4945 28 61.5045 27.59 62.3045 26.77C63.1045 25.95 63.5045 24.89 63.5045 23.59C63.5045 22.29 63.1045 21.22 62.3045 20.38C61.5045 19.54 60.4945 19.12 59.2745 19.12C58.0345 19.12 57.0145 19.54 56.2145 20.38C55.4345 21.2 55.0445 22.26 55.0445 23.56C55.0445 24.86 55.4345 25.93 56.2145 26.77C57.0145 27.59 58.0345 28 59.2745 28ZM75.9648 31.36C74.6848 31.36 73.6348 31.16 72.8148 30.76C71.9948 30.34 71.3848 29.79 70.9848 29.11C70.5848 28.43 70.3848 27.68 70.3848 26.86C70.3848 25.48 70.9248 24.36 72.0048 23.5C73.0848 22.64 74.7048 22.21 76.8648 22.21H80.6448V21.85C80.6448 20.83 80.3548 20.08 79.7748 19.6C79.1948 19.12 78.4748 18.88 77.6148 18.88C76.8348 18.88 76.1548 19.07 75.5748 19.45C74.9948 19.81 74.6348 20.35 74.4948 21.07H70.7448C70.8448 19.99 71.2048 19.05 71.8248 18.25C72.4648 17.45 73.2848 16.84 74.2848 16.42C75.2848 15.98 76.4048 15.76 77.6448 15.76C79.7648 15.76 81.4348 16.29 82.6548 17.35C83.8748 18.41 84.4848 19.91 84.4848 21.85V31H81.2148L80.8548 28.6C80.4148 29.4 79.7948 30.06 78.9948 30.58C78.2148 31.1 77.2048 31.36 75.9648 31.36ZM76.8348 28.36C77.9348 28.36 78.7848 28 79.3848 27.28C80.0048 26.56 80.3948 25.67 80.5548 24.61H77.2848C76.2648 24.61 75.5348 24.8 75.0948 25.18C74.6548 25.54 74.4348 25.99 74.4348 26.53C74.4348 27.11 74.6548 27.56 75.0948 27.88C75.5348 28.2 76.1148 28.36 76.8348 28.36ZM94.5741 31C93.0141 31 91.7641 30.62 90.8241 29.86C89.8841 29.1 89.4141 27.75 89.4141 25.81V19.33H86.8641V16.12H89.4141L89.8641 12.13H93.2541V16.12H97.2741V19.33H93.2541V25.84C93.2541 26.56 93.4041 27.06 93.7041 27.34C94.0241 27.6 94.5641 27.73 95.3241 27.73H97.1841V31H94.5741ZM102.641 13.81C101.941 13.81 101.361 13.6 100.901 13.18C100.461 12.76 100.241 12.23 100.241 11.59C100.241 10.95 100.461 10.43 100.901 10.03C101.361 9.61 101.941 9.4 102.641 9.4C103.341 9.4 103.911 9.61 104.351 10.03C104.811 10.43 105.041 10.95 105.041 11.59C105.041 12.23 104.811 12.76 104.351 13.18C103.911 13.6 103.341 13.81 102.641 13.81ZM100.721 31V16.12H104.561V31H100.721ZM107.609 31V27.91L115.199 19.3H107.699V16.12H119.579V19.21L111.869 27.82H119.729V31H107.609ZM130.155 31.36C128.655 31.36 127.325 31.04 126.165 30.4C125.005 29.76 124.095 28.86 123.435 27.7C122.775 26.54 122.445 25.2 122.445 23.68C122.445 22.14 122.765 20.77 123.405 19.57C124.065 18.37 124.965 17.44 126.105 16.78C127.265 16.1 128.625 15.76 130.185 15.76C131.645 15.76 132.935 16.08 134.055 16.72C135.175 17.36 136.045 18.24 136.665 19.36C137.305 20.46 137.625 21.69 137.625 23.05C137.625 23.27 137.615 23.5 137.595 23.74C137.595 23.98 137.585 24.23 137.565 24.49H126.255C126.335 25.65 126.735 26.56 127.455 27.22C128.195 27.88 129.085 28.21 130.125 28.21C130.905 28.21 131.555 28.04 132.075 27.7C132.615 27.34 133.015 26.88 133.275 26.32H137.175C136.895 27.26 136.425 28.12 135.765 28.9C135.125 29.66 134.325 30.26 133.365 30.7C132.425 31.14 131.355 31.36 130.155 31.36ZM130.185 18.88C129.245 18.88 128.415 19.15 127.695 19.69C126.975 20.21 126.515 21.01 126.315 22.09H133.725C133.665 21.11 133.305 20.33 132.645 19.75C131.985 19.17 131.165 18.88 130.185 18.88Z" fill="#E77B7B"/>
</svg>
